<svg version="1.0" xmlns="http://www.w3.org/2000/svg" width="256" height="256" viewBox="0 0 192 192"><path d="M6.1 34.7c.1 6.3.3 7.2 1 4.7 1.6-5.4 4.2-6.9 12.8-7l7.8-.2v26.7c.1 25.2 0 26.7-1.9 28.8-1.2 1.3-2.7 1.9-3.7 1.6-.9-.4-1.3-.2-.8.3 1 1.1 26.7 1.3 26.1.2-.3-.5-1.4-.8-2.4-.8-3.6 0-4-3.1-4-30.4V32.1l7.3.2c8.6.3 11.9 2 13.4 6.9.9 2.9 1 2.3 1-4.4l-.1-7.6-3.5.6c-5 .9-47 .8-50.3-.1L6 27l.1 7.7zM177.5 28c-1.6.3-11 .6-20.7.5-9.8 0-17.8.1-17.8.2s1.1 1.3 2.5 2.7l2.4 2.4v52.1l-2.6 2.1c-1.4 1.1-2.9 1.7-3.4 1.4-.5-.3-.9-.1-.9.3 0 .9 44.5 1.2 45.3.3.8-.7 4.7-16.4 4.2-16.8-.2-.2-1.1 1.1-2 3-4 7.8-7.9 9.9-19.2 10.4l-8.3.3V62h7.3c6.3 0 7.6.3 9.4 2.2 1.2 1.3 2.3 3.2 2.6 4.3.3 1.1.5-2.7.5-8.5s-.2-9.6-.5-8.5c-.3 1.1-1.4 3-2.6 4.2-1.8 2-3.1 2.3-9.4 2.3H157V45.6c0-9 .3-12.5 1.3-12.8 1.9-.7 14.9-.2 17.5.6 2.5.8 5.6 6.1 4.6 7.8-.4.6-.3.8.3.5 1-.6 1.2-13.2.2-14-.2-.2-1.7-.1-3.4.3zM64.3 29.3c-.2.4-.1.7.4.6 1.8-.3 3.2.2 4.7 1.7 1.4 1.3 1.6 5.2 1.6 27.5 0 26.1-.5 29.9-3.6 29.9-.8 0-1.3.4-1 .8.6 1.1 23.3.9 24.3-.2.4-.5.3-.6-.3-.3-.7.4-2.3-.2-3.5-1.2-2.3-1.8-2.4-2.6-2.6-14-.1-6.7.2-12.1.5-12.2.9-.1 24.2-.1 26.5 0 1.5.1 1.7 1.4 1.7 11.9 0 10.6-.2 12.1-2.1 14-1.1 1.2-2.4 2-3 1.7-.5-.4-.9-.2-.9.3 0 .4 5.8.8 12.9.8 7.1 0 12.7-.4 12.5-.8-.3-.5-1.2-.8-2.1-.8-3.9 0-4.2-2.5-4.3-29.7V33.1l2.6-2c1.5-1.1 3.1-1.8 3.7-1.4.5.3.8.2.5-.3-.7-1.1-25.5-1.1-26.5.1-.5.4-.3.5.3.2.7-.4 2.3.3 3.8 1.4 2.6 2 2.6 2.3 2.6 14.4v12.4l-14.2-.2-14.3-.2-.1-12.1c-.1-12.8.6-15.4 4.5-15.7 1.1 0 1.8-.4 1.5-.7-.9-.8-25.5-.6-26.1.3zM15 101c0 .8-.5 4.4-1 8-.5 3.6-1.2 9-1.5 12-.3 3-.8 6.6-1 8-.2 1.4-.7 5-1 8-.4 3-.9 6.3-1.1 7.4-.2 1-.6 4.4-1 7.5-.6 6.2-2.6 10.1-5 10.1-.8 0-1.3.3-1 .8.4.6 2.6.7 13.1.2 2.9-.1 2.9-.2.6-1.1-2.3-.9-2.3-1.1-1.6-9.7.4-4.8.9-9.6 1.1-10.6.2-1.1.6-4.4.9-7.4.3-3.1.7-5.7.9-5.9.2-.2 5.2 7.7 11.1 17.7 5.9 9.9 11.1 18.2 11.5 18.5.4.3 1.1-1 1.4-2.9.4-1.9 1.8-5 3.1-7 1.4-2 2.5-3.9 2.5-4 0-.2 3.1-5.7 7-12.3 5.2-8.7 7-11.2 7.1-9.3 0 2.5.3 5.3 1.3 12.5.3 2.2.9 7.5 1.2 11.7.5 6.6.4 7.9-1 8.4-.9.3-1.6.9-1.6 1.3 0 .5 41.4.6 66.5.2l4.1-.1 1.7-8.3c2.1-9.9 2.1-11.3.1-6.7-1.8 4.3-5 7.7-8.8 9.7-2.8 1.5-16.7 2.5-18.3 1.4-.5-.3-.9-5.9-.9-12.4 0-9.8.3-11.7 1.6-11.8 9.1-.6 13.3 0 15.5 2.1 1.3 1.2 2.6 3.2 2.8 4.4.2 1.1.3-2.6.4-8.3v-10.4l-1.9 3.6c-2 4.1-4.9 5-13.3 4.5l-5-.3v-25h9.2c10.2 0 12.6 1.2 14.2 6.9.8 2.5.9 1.6 1-4.6l.1-7.8-3.2.7c-1.8.4-11.3.7-21 .7-9.8.1-17.8.2-17.8.4s1 1.2 2.1 2.1c2.1 1.7 2.2 2.4 2.1 28.5 0 19.3-.4 27.1-1.2 28.2-.8.8-3 1.4-5.6 1.4-5.4 0-7-2.1-7.9-10.5-.4-3.3-.8-6.2-1-6.5-.2-.3-.6-3.9-1-8s-.8-7.7-1-8c-.2-.3-.6-3.2-1-6.5-.3-3.3-.8-6.9-.9-8-.2-1.1-.7-4.9-1.1-8.3-.6-5.2-1-6.1-2-5-.7.7-6.3 10.1-12.5 20.8-6.3 10.7-11.9 20.3-12.5 21.3-1 1.5-2.9-1.1-13.9-19.1C16.3 100.6 15.1 98.8 15 101zM135.4 106.4c0 6.8.2 7.1 2 3.4 1.7-3.4 5.4-4.8 12.9-4.8h6.7v26.7c-.1 28.7-.3 30.3-5 30.3-1.3 0-2.1.2-1.8.5.5.6 15.1.9 22.8.5 2.5-.2 3.5-.5 2.3-.7-4.6-.9-4.8-2-4.8-30.5V105h6.8c8.5 0 12.2 1.9 13.5 6.9.9 3.2 1 2.7 1.1-4.2l.1-7.8-3.7.7c-4.8.9-44.7.9-49.4 0l-3.5-.6v6.4z"/></svg>